<?xml version="1.0" encoding="iso-8859-1"?>
<!-- Generator: Adobe Illustrator 16.0.0, SVG Export Plug-In . SVG Version: 6.00 Build 0)  -->
<!DOCTYPE svg PUBLIC "-//W3C//DTD SVG 1.1//EN" "http://www.w3.org/Graphics/SVG/1.1/DTD/svg11.dtd">
<svg version="1.1" id="Capa_1" xmlns="http://www.w3.org/2000/svg" xmlns:xlink="http://www.w3.org/1999/xlink" x="0px" y="0px"
	 width="933.939px" height="933.939px" viewBox="0 0 933.939 933.939" style="enable-background:new 0 0 933.939 933.939;"
	 xml:space="preserve">
<g>
	<g>
		<path d="M819.239,590.919c0,31.301,13.7,59.301,35.5,78.4c45.5-1.799,79.2-13.5,79.2-91.4V295.52c0-25.5-20.7-46.3-46.301-46.3
			h-68.5L819.239,590.919L819.239,590.919z"/>
		<path d="M198.539,383.72c15.1-3.2,30.7-5,46.7-5c26.3,0,51.5,4.6,74.899,13h356.4c13.8,0,25,11.199,25,25c0,13.8-11.2,25-25,25
			h-276.5c18.9,18.399,34.5,40,45.9,64.099h230.6c13.8,0,25,11.201,25,25c0,13.801-11.2,25-25,25h-213.8c3,14.5,4.6,29.6,4.6,45
			c0,23.801-3.8,46.801-10.8,68.4c-0.1,0.199-0.1,0.4-0.2,0.699l253.5-0.299l110.8-0.201c-17.1-22.5-26.5-50-26.5-78.398V249.22
			v-145.4c0-9.4-7.699-17.1-17.1-17.1h-680c-9.4,0-17.1,7.7-17.1,17.1v348.8C110.739,418.32,151.939,393.72,198.539,383.72z
			 M588.339,170.22h87.2c13.8,0,25,11.2,25,25c0,13.8-11.2,25-25,25h-87.2c-13.8,0-25-11.2-25-25
			C563.339,181.42,574.539,170.22,588.339,170.22z M588.339,279.82h87.2c13.8,0,25,11.2,25,25s-11.2,25-25,25h-87.2
			c-13.8,0-25-11.2-25-25S574.539,279.82,588.339,279.82z M398.139,249.22v-63.9c0-6.9,5.601-12.5,12.5-12.5h48.4
			c11.7,0,21.1,1.6,28.7,5c8.3,3.6,14.899,9.3,19.6,16.9c4.601,7.4,6.9,15.4,6.9,23.6c0,7.8-2.101,15.3-6.3,22.1
			c-0.7,1.1-1.4,2.1-2.101,3.1c2,1.7,3.8,3.6,5.4,5.7c0.1,0.2,0.3,0.4,0.399,0.6c5.9,7.7,8.801,16.8,8.801,27.1
			c0,7.9-1.7,15.5-5.101,22.3c-3.399,6.9-7.8,12.5-13.2,16.5c-5.1,3.8-11.3,6.7-18.5,8.5c-6.699,1.699-14.5,2.5-23.899,2.5h-49.101
			c-6.899,0-12.5-5.601-12.5-12.5V249.22L398.139,249.22z M240.239,249.22c0.4-23.6,7.3-42.6,20.6-56.6c13.9-14.6,31.9-22,53.5-22
			c14.101,0,27.101,3.5,38.601,10.3c11.6,6.9,20.6,16.7,26.699,29c5.7,11.7,8.7,24.9,8.801,39.4c0,0.2,0,0.5,0,0.7
			c0,15-3.101,28.7-9.301,40.8c-6.399,12.5-15.699,22.2-27.5,28.7c-11.5,6.3-24,9.5-37.3,9.5c-14.399,0-27.6-3.601-39.1-10.601
			c-11.6-7.1-20.5-16.899-26.4-29.2c-5.7-11.8-8.6-24.5-8.6-37.6C240.139,250.72,240.239,249.92,240.239,249.22z M133.139,277.42
			c0.1-6.2,4.7-11.3,10.8-12.2l15.4-2.1c3.5-0.5,7,0.5,9.7,2.8c2.7,2.3,4.3,5.6,4.5,9.1c0.4,9.8,2.3,12.4,2.3,12.4
			c0.3,0.4,1.2,1.3,4.3,1.3c1.9,0,3.3-0.3,4.4-1c0.8-0.5,1.1-1,1.3-1.5c0.2-0.7,1.1-3.7,1.1-12v-88.9c0-6.9,5.6-12.5,12.5-12.5h17.1
			c6.9,0,12.5,5.6,12.5,12.5v63.9v23.9c0,12.6-1.6,22.5-5,30.1c-3.7,8.5-9.7,15-17.8,19.5c-2.4,1.3-5,2.399-7.7,3.3
			c-5.6,1.899-11.7,2.899-18.2,2.899c-14.9,0-26.7-4.6-35.2-13.8C136.839,306.22,132.839,293.52,133.139,277.42z"/>
		<path d="M468.239,226.02c1.2-0.4,2.7-0.9,3.399-1.9c0.601-0.8,0.9-2.1,0.9-3.8c0-2.5-0.7-3.8-1.1-4.6c-0.4-0.6-0.9-1.1-2-1.4
			c-0.9-0.3-4.7-1.2-15.801-1.2h-13.3v13.9h15.4C464.339,227.02,467.439,226.32,468.239,226.02z"/>
		<path d="M314.239,289.32c9.399,0,16.5-3,22.5-9.5c6.1-6.6,9.1-16.7,9.1-30c0-0.2,0-0.4,0-0.7c-0.1-8.4-1.5-15.7-4.2-21.7
			c-2.5-5.6-6.1-9.8-10.8-12.8c-4.8-3-10.2-4.5-16.3-4.5c-8.8,0-16.2,2.9-22.5,9c-5.8,5.5-8.8,15.6-9.1,30c0,0.8,0,1.6,0,2.5
			c0,12.4,3,21.6,9.2,28.2C297.939,286.32,305.039,289.32,314.239,289.32z"/>
		<path d="M469.139,286.12c3-0.5,4.601-1.3,5.5-1.8c0.801-0.5,1.5-1.3,2.101-2.5c0.7-1.3,1-2.9,1-4.9c0-3-0.8-4.5-1.5-5.4
			c-0.601-0.9-1.601-2-3.9-2.7c-1.7-0.6-6-1.5-14.899-1.5h-17.301v19.3h19.601C466.439,286.52,468.639,286.22,469.139,286.12z"/>
		<path d="M37.539,847.22c9.7,0,19.4-3.699,26.7-11.199l52.9-53.801l8.9-9l6.5-6.699c0.8-0.801,1.5-1.602,2.2-2.5
			c31.5,21.398,69.5,33.898,110.4,33.898c74.6,0,139.7-41.699,173.2-103c2.2-4.1,4.3-8.299,6.3-12.5c1.9-4.1,3.601-8.299,5.2-12.5
			c0.101-0.199,0.2-0.5,0.3-0.699c7.9-21.301,12.2-44.301,12.2-68.301c0-15.5-1.8-30.6-5.2-45c-4.199-17.699-10.699-34.5-19.3-50
			c-14-25.299-33.3-47.099-56.5-64.099c-32.6-23.9-72.8-38-116.2-38c-16.1,0-31.7,2-46.7,5.6c-14.7,3.601-28.7,8.801-41.9,15.5
			c-31.2,15.801-57.7,39.601-76.6,68.701c-4.6,7.1-8.8,14.5-12.5,22.199c-5.1,10.701-9.3,21.9-12.5,33.5
			c-4.5,16.5-6.9,33.801-6.9,51.701c0,40.898,12.5,78.898,33.9,110.398c-1,0.801-2,1.701-2.9,2.701l-6.1,6.199l-8.9,9.1
			l-53.3,54.201c-14.5,14.799-14.3,38.5,0.5,53C18.539,843.72,28.039,847.22,37.539,847.22z M198.539,470.72
			c14.6-5.3,30.3-8.1,46.7-8.1c39.5,0,75.1,16.6,100.399,43.299c13.4,14.201,23.9,31.201,30.4,50c4.9,14.102,7.5,29.301,7.5,45
			c0,24.801-6.6,48.102-18.1,68.201c-0.2,0.299-0.301,0.6-0.5,0.9c-2.5,4.299-5.2,8.5-8.2,12.5c-3.2,4.398-6.7,8.6-10.4,12.5
			c-25.3,27.1-61.3,44.1-101.2,44.1c-40.4,0-76.8-17.4-102.1-45.1c-4.5-5-8.7-10.301-12.5-15.801c-2.1-3-4-6.199-5.8-9.4
			c-0.5-0.9-1-1.799-1.5-2.799c-1.1-2-2.1-4.102-3.1-6.102c-8.5-17.898-13.3-38-13.3-59.1
			C106.939,541.021,145.139,489.919,198.539,470.72z"/>
	</g>
</g>
<g>
</g>
<g>
</g>
<g>
</g>
<g>
</g>
<g>
</g>
<g>
</g>
<g>
</g>
<g>
</g>
<g>
</g>
<g>
</g>
<g>
</g>
<g>
</g>
<g>
</g>
<g>
</g>
<g>
</g>
</svg>
